<?xml version="1.0"?>
<svg width="475" height="378" xmlns="http://www.w3.org/2000/svg" xmlns:svg="http://www.w3.org/2000/svg" enable-background="new 0 0 475 378" version="1.1" xml:space="preserve">
 <g class="layer">
  <title>Layer 1</title>
  <path d="m329,379c-109.67,0 -218.83,0 -328,0c0,-126 0,-252 0,-378c158.33,0 316.67,0 475,0c0,126 0,252 0,378c-48.83,0 -97.67,0 -147,0m-116.56,-52.94c5.03,2.91 10.1,5.78 15.1,8.76c6.93,4.12 13.75,4.13 20.75,0.05c37.81,-21.98 75.64,-43.93 113.5,-65.82c7.04,-4.07 10.14,-9.93 10.12,-18.07c-0.13,-43.49 -0.13,-86.99 0,-130.48c0.02,-8.48 -3.14,-14.57 -10.57,-18.85c-37.16,-21.44 -74.31,-42.91 -111.29,-64.66c-8.64,-5.08 -16.28,-4.61 -24.73,0.35c-36.58,21.47 -73.29,42.69 -110.02,63.88c-7.63,4.4 -11.4,10.4 -11.37,19.41c0.19,42.99 0.22,85.99 -0.02,128.98c-0.05,9.4 3.63,15.68 11.64,20.29c32.14,18.49 64.17,37.19 96.89,56.16z" fill="#FFFFFF" id="svg_1" opacity="1" transform="matrix(1 0 0 1 0 0)"/>
  <path d="m212.12,325.88c-32.4,-18.79 -64.43,-37.49 -96.57,-55.98c-8.01,-4.61 -11.69,-10.89 -11.64,-20.29c0.24,-42.99 0.21,-85.99 0.02,-128.98c-0.03,-9.01 3.74,-15.01 11.37,-19.41c36.73,-21.19 73.44,-42.41 110.02,-63.88c8.45,-4.96 16.09,-5.43 24.73,-0.35c36.98,21.75 74.13,43.22 111.29,64.66c7.43,4.28 10.59,10.37 10.57,18.85c-0.13,43.49 -0.13,86.99 0,130.48c0.02,8.14 -3.08,14 -10.12,18.07c-37.86,21.89 -75.69,43.84 -113.5,65.82c-7,4.08 -13.82,4.07 -20.75,-0.05c-5,-2.98 -10.07,-5.85 -15.42,-8.94m-54.19,-150.71c-1.89,12.39 -3.78,24.77 -5.7,37.44c2.36,-0.15 4.1,-0.26 5.82,-0.37c0.99,-11.93 1.96,-23.57 2.93,-35.21c0.48,-0.08 0.97,-0.17 1.45,-0.25c6.4,12.13 12.8,24.26 19.49,36.96c6.77,-13.1 13.06,-25.27 19.35,-37.45c0.39,0.05 0.78,0.1 1.16,0.16c1.09,11.95 2.17,23.91 3.26,35.97c2.82,0 5.41,0 8.12,0c-2.09,-17.18 -4.15,-34.15 -6.4,-52.68c-1.77,1.88 -3.08,2.8 -3.76,4.07c-6.07,11.26 -12.01,22.59 -18.03,33.89c-0.49,0.91 -1.2,1.71 -1.99,2.8c-0.71,-1.11 -1.21,-1.78 -1.59,-2.51c-6.1,-11.43 -12.14,-22.9 -18.31,-34.29c-0.59,-1.09 -1.95,-1.76 -2.96,-2.63c-0.53,1.1 -1.35,2.15 -1.55,3.31c-0.54,3.28 -0.83,6.6 -1.29,10.79m156.5,37.55c2.84,-0.16 5.67,-0.31 8.87,-0.48c-6.1,-7.07 -11.82,-13.7 -17.75,-20.57c5.38,-4.83 10.47,-9.41 15.86,-14.26c-5.02,-1.14 -7.95,0.23 -10.77,3.87c-3.23,4.17 -7.55,7.5 -12.02,11.81c0,-12.58 0,-23.79 0,-34.82c-2.44,0 -4.7,0 -7.09,0c0,18.16 0,36.05 0,54.14c2.51,0 4.75,0 7.38,0c0,-5.59 0,-11.03 0,-16.47c0.38,-0.16 0.77,-0.32 1.15,-0.48c4.59,5.58 9.17,11.16 14.37,17.26m-62.76,-2.93c-0.82,-1.79 -2.27,-3.56 -2.35,-5.39c-0.23,-5.13 0.11,-10.29 0.22,-15.44c0.11,-4.98 -1.16,-9.37 -6.15,-11.45c-5.92,-2.48 -11.83,-1.99 -16.97,1.91c-1.41,1.08 -1.71,3.62 -2.52,5.49c0.52,0.22 1.05,0.45 1.58,0.68c0.82,-0.96 1.59,-1.96 2.48,-2.85c3.11,-3.14 8.66,-3.86 11.73,-0.85c1.67,1.64 2.73,4.5 2.83,6.86c0.04,1.05 -2.86,2.59 -4.67,3.25c-3.26,1.19 -6.8,1.62 -10.03,2.85c-5.2,1.98 -7.3,6.06 -6.14,11.02c1.21,5.22 5.1,8.41 10.55,7.62c3.61,-0.53 7.05,-2.3 10.91,-3.63c1.73,3.44 5.18,4.33 9.41,2.36c0.27,-0.13 -0.04,-1.52 -0.88,-2.43m11.46,-9.35c0,3.93 0,7.87 0,11.81c2.28,0 4.52,0 6.74,0c0,-3.1 0,-5.92 0,-8.74c0,-2.83 -0.02,-5.66 0.01,-8.49c0.1,-10.35 2.06,-12.29 12.56,-12.19c0.14,-2.18 0.27,-4.37 0.41,-6.56c-0.44,-0.39 -0.88,-0.78 -1.32,-1.17c-3.92,2.26 -7.84,4.52 -11.74,6.76c0,-1.36 0,-3.13 0,-4.95c-2.32,0 -4.41,0 -6.66,0c0,7.65 0,15.1 0,23.53z" fill="#007fff" id="svg_2" opacity="1" transform="matrix(1 0 0 1 0 0)"/>
  <path d="m157.96,174.73c0.43,-3.75 0.72,-7.07 1.26,-10.35c0.2,-1.16 1.02,-2.21 1.55,-3.31c1.01,0.87 2.37,1.54 2.96,2.63c6.17,11.39 12.21,22.86 18.31,34.29c0.38,0.73 0.88,1.4 1.59,2.51c0.79,-1.09 1.5,-1.89 1.99,-2.8c6.02,-11.3 11.96,-22.63 18.03,-33.89c0.68,-1.27 1.99,-2.19 3.76,-4.07c2.25,18.53 4.31,35.5 6.4,52.68c-2.71,0 -5.3,0 -8.12,0c-1.09,-12.06 -2.17,-24.02 -3.26,-35.97c-0.38,-0.06 -0.77,-0.11 -1.16,-0.16c-6.29,12.18 -12.58,24.35 -19.35,37.45c-6.69,-12.7 -13.09,-24.83 -19.49,-36.96c-0.48,0.08 -0.97,0.17 -1.45,0.25c-0.97,11.64 -1.94,23.28 -2.93,35.21c-1.72,0.11 -3.46,0.22 -5.82,0.37c1.92,-12.67 3.81,-25.05 5.73,-37.88z" fill="#F6F6F7" id="svg_3" opacity="1"/>
  <path d="m314.13,212.46c-4.9,-5.84 -9.48,-11.42 -14.07,-17c-0.38,0.16 -0.77,0.32 -1.15,0.48c0,5.44 0,10.88 0,16.47c-2.63,0 -4.87,0 -7.38,0c0,-18.09 0,-35.98 0,-54.14c2.39,0 4.65,0 7.09,0c0,11.03 0,22.24 0,34.82c4.47,-4.31 8.79,-7.64 12.02,-11.81c2.82,-3.64 5.75,-5.01 10.77,-3.87c-5.39,4.85 -10.48,9.43 -15.86,14.26c5.93,6.87 11.65,13.5 17.75,20.57c-3.2,0.17 -6.03,0.32 -9.17,0.22z" fill="#F1F1F2" id="svg_4" opacity="1"/>
  <path d="m252.08,209.84c0.43,0.86 0.74,2.25 0.47,2.38c-4.23,1.97 -7.68,1.08 -9.41,-2.36c-3.86,1.33 -7.3,3.1 -10.91,3.63c-5.45,0.79 -9.34,-2.4 -10.55,-7.62c-1.16,-4.96 0.94,-9.04 6.14,-11.02c3.23,-1.23 6.77,-1.66 10.03,-2.85c1.81,-0.66 4.71,-2.2 4.67,-3.25c-0.1,-2.36 -1.16,-5.22 -2.83,-6.86c-3.07,-3.01 -8.62,-2.29 -11.73,0.85c-0.89,0.89 -1.66,1.89 -2.48,2.85c-0.53,-0.23 -1.06,-0.46 -1.58,-0.68c0.81,-1.87 1.11,-4.41 2.52,-5.49c5.14,-3.9 11.05,-4.39 16.97,-1.91c4.99,2.08 6.26,6.47 6.15,11.45c-0.11,5.15 -0.45,10.31 -0.22,15.44c0.08,1.83 1.53,3.6 2.76,5.44m-13.57,-1.38c5.92,-3.23 4.08,-8.71 4.19,-14.23c-2.86,0.64 -5.46,1.04 -7.95,1.82c-5.07,1.59 -6.92,4.47 -5.72,8.84c1.3,4.74 4.84,4.83 9.48,3.57z" fill="#F3F3F4" id="svg_5" opacity="1"/>
  <path d="m263.13,199.94c0,-7.93 0,-15.38 0,-23.03c2.25,0 4.34,0 6.66,0c0,1.82 0,3.59 0,4.95c3.9,-2.24 7.82,-4.5 11.74,-6.76c0.44,0.39 0.88,0.78 1.32,1.17c-0.14,2.19 -0.27,4.38 -0.41,6.56c-10.5,-0.1 -12.46,1.84 -12.56,12.19c-0.03,2.83 -0.01,5.66 -0.01,8.49c0,2.82 0,5.64 0,8.74c-2.22,0 -4.46,0 -6.74,0c0,-3.94 0,-7.88 0,-12.31z" fill="#F1F1F2" id="svg_6" opacity="1"/>
  <path d="m238.14,207.64c-4.27,1.08 -7.81,0.99 -9.11,-3.75c-1.2,-4.37 0.65,-7.25 5.72,-8.84c2.49,-0.78 5.09,-1.18 7.95,-1.82c-0.11,5.52 1.73,11 -4.56,14.41z" fill="#007fff" id="svg_7" opacity="1"/>
 </g>
</svg>