<svg version="1.1" id="Layer_1" xmlns="http://www.w3.org/2000/svg" xmlns:xlink="http://www.w3.org/1999/xlink" x="0px" y="0px"
	 width="100%" viewBox="0 0 475 378" enable-background="new 0 0 475 378" xml:space="preserve">
<path fill="#FFFFFF" opacity="1.000000" stroke="none" 
	d="
M329.000000,379.000000 
	C219.333344,379.000000 110.166695,379.000000 1.000029,379.000000 
	C1.000020,253.000031 1.000020,127.000053 1.000010,1.000063 
	C159.333282,1.000042 317.666565,1.000042 475.999878,1.000021 
	C475.999939,126.999939 475.999939,252.999878 475.999969,378.999908 
	C427.166656,379.000000 378.333344,379.000000 329.000000,379.000000 
M212.437195,326.057373 
	C217.474777,328.974121 222.541199,331.842377 227.542984,334.819275 
	C234.471603,338.943054 241.292099,338.945282 248.292419,334.874756 
	C286.100769,312.889740 323.931000,290.942169 361.792328,269.048523 
	C368.832458,264.977478 371.934540,259.124176 371.909790,250.979279 
	C371.777618,207.486786 371.776184,163.993454 371.906525,120.500961 
	C371.931976,112.015121 368.774963,105.933952 361.342407,101.646606 
	C324.179291,80.209656 287.034454,58.738693 250.051422,36.993572 
	C241.405502,31.909996 233.766922,32.383942 225.315353,37.344154 
	C188.744049,58.807812 152.033203,80.034660 115.298973,101.219078 
	C107.670868,105.618172 103.895325,111.618629 103.933968,120.630928 
	C104.118317,163.623108 104.154175,206.617310 103.910629,249.608902 
	C103.857376,259.008972 107.543602,265.291351 115.548508,269.897217 
	C147.692551,288.392242 179.722595,307.085449 212.437195,326.057373 
z"/>
<path fill="#4d94ff" opacity="1.000000" stroke="none"
	d="
M212.115982,325.881409 
	C179.722595,307.085449 147.692551,288.392242 115.548508,269.897217 
	C107.543602,265.291351 103.857376,259.008972 103.910629,249.608902 
	C104.154175,206.617310 104.118317,163.623108 103.933968,120.630928 
	C103.895325,111.618629 107.670868,105.618172 115.298973,101.219078 
	C152.033203,80.034660 188.744049,58.807812 225.315353,37.344154 
	C233.766922,32.383942 241.405502,31.909996 250.051422,36.993572 
	C287.034454,58.738693 324.179291,80.209656 361.342407,101.646606 
	C368.774963,105.933952 371.931976,112.015121 371.906525,120.500961 
	C371.776184,163.993454 371.777618,207.486786 371.909790,250.979279 
	C371.934540,259.124176 368.832458,264.977478 361.792328,269.048523 
	C323.931000,290.942169 286.100769,312.889740 248.292419,334.874756 
	C241.292099,338.945282 234.471603,338.943054 227.542984,334.819275 
	C222.541199,331.842377 217.474777,328.974121 212.115982,325.881409 
M157.925201,175.168076 
	C156.039505,187.556458 154.153809,199.944839 152.226700,212.605377 
	C154.594223,212.457169 156.332748,212.348343 158.053925,212.240601 
	C159.044113,200.308075 160.010025,188.667969 160.975937,177.027878 
	C161.461105,176.946030 161.946289,176.864182 162.431473,176.782333 
	C168.828690,188.909637 175.225906,201.036942 181.924652,213.735840 
	C188.687912,200.643280 194.977554,188.467575 201.267197,176.291870 
	C201.656387,176.343262 202.045593,176.394653 202.434784,176.446045 
	C203.516876,188.404633 204.598969,200.363220 205.690247,212.423279 
	C208.511887,212.423279 211.099426,212.423279 213.805923,212.423279 
	C211.721481,195.242767 209.662506,178.272186 207.414581,159.744064 
	C205.644943,161.619949 204.332260,162.542740 203.651733,163.806076 
	C197.583633,175.071075 191.635696,186.400772 185.621628,197.695038 
	C185.133804,198.611160 184.418198,199.405975 183.633331,200.501587 
	C182.919022,199.385742 182.424072,198.718384 182.037704,197.993164 
	C175.944550,186.556381 169.899567,175.093628 163.727814,163.699524 
	C163.137634,162.609970 161.776535,161.937973 160.773331,161.072144 
	C160.238586,162.170822 159.416595,163.221542 159.223709,164.377289 
	C158.676422,167.656693 158.386215,170.978989 157.925201,175.168076 
M314.428986,212.715866 
	C317.265045,212.562912 320.101135,212.409958 323.300507,212.237396 
	C317.203644,205.171661 311.478210,198.536346 305.554321,191.671051 
	C310.926880,186.839981 316.019592,182.260559 321.412476,177.411240 
	C316.394836,176.268723 313.458282,177.643250 310.643158,181.281357 
	C307.413788,185.454865 303.093384,188.784149 298.617432,193.085083 
	C298.617432,180.509445 298.617432,169.300507 298.617432,158.269638 
	C296.183929,158.269638 293.923828,158.269638 291.528564,158.269638 
	C291.528564,176.430939 291.528564,194.319519 291.528564,212.409683 
	C294.036835,212.409683 296.275452,212.409683 298.910370,212.409683 
	C298.910370,206.824875 298.910370,201.381668 298.910370,195.938446 
	C299.292969,195.777618 299.675598,195.616806 300.058197,195.455994 
	C304.646027,201.039322 309.233826,206.622650 314.428986,212.715866 
M251.672974,209.794357 
	C250.848892,207.997467 249.400787,206.228210 249.319748,204.398422 
	C249.092407,199.265915 249.432953,194.108490 249.542130,188.960754 
	C249.647720,183.981491 248.375122,179.588898 243.386215,177.505478 
	C237.467896,175.033936 231.559219,175.517944 226.422302,179.423019 
	C225.008240,180.498032 224.709213,183.039795 223.898544,184.908554 
	C224.424713,185.134506 224.950867,185.360458 225.477036,185.586426 
	C226.300476,184.634949 227.072784,183.632812 227.956589,182.741196 
	C231.071030,179.599197 236.620209,178.881058 239.691895,181.890945 
	C241.362839,183.528275 242.424927,186.393661 242.519470,188.754883 
	C242.561295,189.799530 239.657745,191.338608 237.852020,191.998413 
	C234.593430,193.189072 231.052460,193.618484 227.815002,194.852631 
	C222.616699,196.834259 220.524597,200.905212 221.675293,205.865341 
	C222.887375,211.090088 226.783463,214.278305 232.229279,213.487808 
	C235.843903,212.963089 239.277435,211.190765 243.137543,209.857590 
	C244.871201,213.302994 248.320160,214.190033 252.545547,212.217804 
	C252.824127,212.087784 252.514282,210.697128 251.672974,209.794357 
M263.126312,200.435013 
	C263.126312,204.370224 263.126312,208.305435 263.126312,212.246643 
	C265.409668,212.246643 267.648346,212.246643 269.874207,212.246643 
	C269.874207,209.151215 269.874359,206.332352 269.874176,203.513504 
	C269.874023,200.681778 269.848297,197.849792 269.877655,195.018372 
	C269.984924,184.674911 271.937164,182.730850 282.443726,182.830978 
	C282.578979,180.650879 282.714966,178.459229 282.850952,176.267578 
	C282.410614,175.878296 281.970306,175.489014 281.529968,175.099731 
	C277.607941,177.358170 273.685913,179.616592 269.794373,181.857452 
	C269.794373,180.495483 269.794373,178.725555 269.794373,176.909973 
	C267.467438,176.909973 265.382629,176.909973 263.127228,176.909973 
	C263.127228,184.555466 263.127228,192.005066 263.126312,200.435013 
z"/>
<path fill="#F6F6F7" opacity="1.000000" stroke="none"
	d="
M157.959991,174.726242 
	C158.386215,170.978989 158.676422,167.656693 159.223709,164.377289 
	C159.416595,163.221542 160.238586,162.170822 160.773331,161.072144 
	C161.776535,161.937973 163.137634,162.609970 163.727814,163.699524 
	C169.899567,175.093628 175.944550,186.556381 182.037704,197.993164 
	C182.424072,198.718384 182.919022,199.385742 183.633331,200.501587 
	C184.418198,199.405975 185.133804,198.611160 185.621628,197.695038 
	C191.635696,186.400772 197.583633,175.071075 203.651733,163.806076 
	C204.332260,162.542740 205.644943,161.619949 207.414581,159.744064 
	C209.662506,178.272186 211.721481,195.242767 213.805923,212.423279 
	C211.099426,212.423279 208.511887,212.423279 205.690247,212.423279 
	C204.598969,200.363220 203.516876,188.404633 202.434784,176.446045 
	C202.045593,176.394653 201.656387,176.343262 201.267197,176.291870 
	C194.977554,188.467575 188.687912,200.643280 181.924652,213.735840 
	C175.225906,201.036942 168.828690,188.909637 162.431473,176.782333 
	C161.946289,176.864182 161.461105,176.946030 160.975937,177.027878 
	C160.010025,188.667969 159.044113,200.308075 158.053925,212.240601 
	C156.332748,212.348343 154.594223,212.457169 152.226700,212.605377 
	C154.153809,199.944839 156.039505,187.556458 157.959991,174.726242 
z"/>
<path fill="#F1F1F2" opacity="1.000000" stroke="none"
	d="
M314.125305,212.460922 
	C309.233826,206.622650 304.646027,201.039322 300.058197,195.455994 
	C299.675598,195.616806 299.292969,195.777618 298.910370,195.938446 
	C298.910370,201.381668 298.910370,206.824875 298.910370,212.409683 
	C296.275452,212.409683 294.036835,212.409683 291.528564,212.409683 
	C291.528564,194.319519 291.528564,176.430939 291.528564,158.269638 
	C293.923828,158.269638 296.183929,158.269638 298.617432,158.269638 
	C298.617432,169.300507 298.617432,180.509445 298.617432,193.085083 
	C303.093384,188.784149 307.413788,185.454865 310.643158,181.281357 
	C313.458282,177.643250 316.394836,176.268723 321.412476,177.411240 
	C316.019592,182.260559 310.926880,186.839981 305.554321,191.671051 
	C311.478210,198.536346 317.203644,205.171661 323.300507,212.237396 
	C320.101135,212.409958 317.265045,212.562912 314.125305,212.460922 
z"/>
<path fill="#F3F3F4" opacity="1.000000" stroke="none"
	d="
M252.075562,209.843597 
	C252.514282,210.697128 252.824127,212.087784 252.545547,212.217804 
	C248.320160,214.190033 244.871201,213.302994 243.137543,209.857590 
	C239.277435,211.190765 235.843903,212.963089 232.229279,213.487808 
	C226.783463,214.278305 222.887375,211.090088 221.675293,205.865341 
	C220.524597,200.905212 222.616699,196.834259 227.815002,194.852631 
	C231.052460,193.618484 234.593430,193.189072 237.852020,191.998413 
	C239.657745,191.338608 242.561295,189.799530 242.519470,188.754883 
	C242.424927,186.393661 241.362839,183.528275 239.691895,181.890945 
	C236.620209,178.881058 231.071030,179.599197 227.956589,182.741196 
	C227.072784,183.632812 226.300476,184.634949 225.477036,185.586426 
	C224.950867,185.360458 224.424713,185.134506 223.898544,184.908554 
	C224.709213,183.039795 225.008240,180.498032 226.422302,179.423019 
	C231.559219,175.517944 237.467896,175.033936 243.386215,177.505478 
	C248.375122,179.588898 249.647720,183.981491 249.542130,188.960754 
	C249.432953,194.108490 249.092407,199.265915 249.319748,204.398422 
	C249.400787,206.228210 250.848892,207.997467 252.075562,209.843597 
M238.506607,208.464569 
	C244.428070,205.233765 242.593063,199.745468 242.702042,194.230865 
	C239.843658,194.870911 237.235596,195.270218 234.747162,196.050842 
	C229.684036,197.639191 227.829773,200.520050 229.028671,204.894089 
	C230.325531,209.625565 233.867142,209.718307 238.506607,208.464569 
z"/>
<path fill="#F1F1F2" opacity="1.000000" stroke="none"
	d="
M263.126770,199.944839 
	C263.127228,192.005066 263.127228,184.555466 263.127228,176.909973 
	C265.382629,176.909973 267.467438,176.909973 269.794373,176.909973 
	C269.794373,178.725555 269.794373,180.495483 269.794373,181.857452 
	C273.685913,179.616592 277.607941,177.358170 281.529968,175.099731 
	C281.970306,175.489014 282.410614,175.878296 282.850952,176.267578 
	C282.714966,178.459229 282.578979,180.650879 282.443726,182.830978 
	C271.937164,182.730850 269.984924,184.674911 269.877655,195.018372 
	C269.848297,197.849792 269.874023,200.681778 269.874176,203.513504 
	C269.874359,206.332352 269.874207,209.151215 269.874207,212.246643 
	C267.648346,212.246643 265.409668,212.246643 263.126312,212.246643 
	C263.126312,208.305435 263.126312,204.370224 263.126770,199.944839 
z"/>
<path fill="#4d94ff" opacity="1.000000" stroke="none"
	d="
M238.141556,208.640610 
	C233.867142,209.718307 230.325531,209.625565 229.028671,204.894089 
	C227.829773,200.520050 229.684036,197.639191 234.747162,196.050842 
	C237.235596,195.270218 239.843658,194.870911 242.702042,194.230865 
	C242.593063,199.745468 244.428070,205.233765 238.141556,208.640610 
z"/>
</svg>